<?xml version="1.0" standalone="no"?>
<!DOCTYPE svg PUBLIC "-//W3C//DTD SVG 20010904//EN"
 "http://www.w3.org/TR/2001/REC-SVG-20010904/DTD/svg10.dtd">
<svg version="1.0" xmlns="http://www.w3.org/2000/svg"
 width="270.000000pt" height="270.000000pt" viewBox="0 0 270.000000 270.000000"
 preserveAspectRatio="xMidYMid meet">
<metadata>
Created by potrace 1.11, written by Peter Selinger 2001-2013
</metadata>
<g transform="translate(0.000000,270.000000) scale(0.100000,-0.100000)"
fill="#000000" stroke="none">
<path d="M0 1350 l0 -1350 1350 0 1350 0 0 1350 0 1350 -1350 0 -1350 0 0
-1350z m2390 691 c0 -5 -34 -97 -76 -203 -41 -106 -89 -228 -105 -270 l-30
-77 -315 -3 c-173 -2 -314 1 -314 5 0 4 48 131 107 282 l107 275 313 0 c186 0
313 -4 313 -9z m-1250 -818 c0 -4 -48 -130 -107 -280 l-106 -273 -314 0 c-172
0 -313 3 -313 7 0 3 48 129 107 280 l106 273 314 0 c172 0 313 -3 313 -7z
m915 -30 c-8 -21 -57 -146 -109 -278 l-94 -240 -317 -3 c-252 -2 -316 0 -312
10 3 7 45 117 95 243 49 127 97 247 105 268 l16 37 315 0 316 0 -15 -37z"/>
</g>
</svg>
