<?xml version="1.0" encoding="UTF-8"?>
<svg class="nebula-logo" xmlns="http://www.w3.org/2000/svg" width="422.86" height="185.74" version="1.1" viewBox="0 0 422.86 185.74">
  <path d="M68.32,108.6c3.61-19.9,5.42-30.88,5.42-32.94s-.58-3.09-1.75-3.09-2.75,1.17-4.75,3.5c-2,2.33-3.67,4.62-5,6.84l-2.17,3.5c-8.9,14.57-18.96,33.86-30.19,57.88-2.23,4.89-4.34,8.03-6.34,9.42-2,1.39-4.87,2.08-8.59,2.08s-5.59-.83-5.59-2.5v-.5c0-1.45,2.84-6.73,8.51-15.84,21.68-34.8,37.53-62.32,47.54-82.56,2.56-5.11,3.84-9.73,3.84-13.84v-2.67c0-.78.3-1.58.92-2.42.61-.83,2.53-1.72,5.75-2.67,3.22-.94,7.67-1.42,13.34-1.42,8.56,0,12.84,1.61,12.84,4.84,0,1-2.28,11.79-6.84,32.36-4.56,20.57-6.84,33-6.84,37.28s.44,6.42,1.33,6.42c1.33,0,2.72-.72,4.17-2.17s2.56-2.84,3.34-4.17l1.17-2.17c7.12-11.68,13.51-23.27,19.18-34.78,5.67-11.51,9.84-19.99,12.51-25.44,2.67-5.45,5-8.89,7-10.34,2.89-1.67,6.56-2.5,11.01-2.5s6.67.67,6.67,2v.33c0,.78-2.95,5.45-8.84,14.01-5.9,8.56-13.71,20.6-23.43,36.11-9.73,15.51-18.21,30.33-25.44,44.45-3.12,7.23-4.67,13.01-4.67,17.35,0,1.33-.25,2.33-.75,3s-2.23,1.31-5.17,1.92c-2.95.61-5.98.92-9.09.92h-5.34c-1.23,0-2.73-.28-4.5-.83-3.11-.89-4.67-2.28-4.67-4.17,0-4.89,1.81-17.29,5.42-37.2Z" fill="#fff"/>
  <path d="M129.46,159.13c-6.45,0-11.18-1.92-14.18-5.75-3-3.84-4.5-8.56-4.5-14.18s1.22-11.51,3.67-17.68c2.45-6.17,5.81-12.15,10.09-17.93,4.28-5.78,9.89-10.65,16.85-14.59,6.95-3.95,14.43-5.92,22.43-5.92,3.67,0,6.45,1.14,8.34,3.42,1.89,2.28,2.84,4.98,2.84,8.09,0,6.45-2.28,12.46-6.84,18.01-4.56,5.56-9.62,9.79-15.18,12.68-5.56,2.89-10.48,4.53-14.76,4.92-4.28.39-7.15,1.2-8.59,2.42-1.45,1.22-2.17,3.67-2.17,7.34s.83,6.45,2.5,8.34,3.34,3.17,5,3.84,2.5,1.33,2.5,2c0,1.56-.83,2.78-2.5,3.67-1.67.89-3.5,1.33-5.5,1.33ZM158.81,98.75c0-3.45-1.56-5.17-4.67-5.17-4.45,0-9.37,3.11-14.76,9.34-5.39,6.23-8.09,11.84-8.09,16.85,0,1.23.94,1.83,2.84,1.83,4.56,0,9.81-2.33,15.76-7,5.95-4.67,8.92-9.95,8.92-15.85Z" fill="#fff"/>
  <path d="M187.83,153.46c-2.89,0-5.7-.47-8.42-1.42-2.73-.95-4.31-1.42-4.75-1.42-1.22,0-2.67,1.28-4.34,3.84-2.23,3.56-6.4,5.34-12.51,5.34-3.67,0-5.5-.89-5.5-2.67l.17-.67C206.51,63.06,234.04,15.3,235.04,13.19c2.67-4.89,8.89-7.34,18.68-7.34,3.34,0,5,.89,5,2.67,0,1-2.61,5.12-7.84,12.34-19.57,26.47-34.64,49.98-45.2,70.55-.22.45-.33,1-.33,1.67,0,1,.44,1.5,1.33,1.5s2.39-.78,4.5-2.33c6.11-4.45,12.29-6.67,18.51-6.67,6.56,0,9.84,4.06,9.84,12.18,0,4.34-1.33,9.59-4,15.76-2.67,6.17-6.23,12.26-10.67,18.26-4.45,6-10.01,11.12-16.68,15.34s-13.46,6.34-20.35,6.34ZM193.84,143.96c6.11,0,12.4-4.98,18.85-14.93,6.45-9.95,9.67-18.37,9.67-25.27,0-3-1.23-4.5-3.67-4.5-3.67,0-8.42,2.53-14.26,7.59-5.84,5.06-10.87,10.42-15.09,16.1-4.23,5.67-6.34,9.57-6.34,11.68.11.67.33,1.53.67,2.59.33,1.06,1.42,2.45,3.25,4.17,1.84,1.72,4.14,2.58,6.92,2.58Z" fill="#fff"/>
  <path d="M279.57,134.62c0-.78-.28-1.17-.83-1.17h-.33l-2.5,1.17c-7.23,7.01-13.12,11.82-17.68,14.43-4.56,2.61-9.29,3.92-14.18,3.92-2.23,0-4.23-.67-6.01-2-1.78-1.33-2.67-3.89-2.67-7.67s1.94-10.45,5.84-20.02c3.89-9.56,8.73-18.71,14.51-27.44,5.78-8.73,10.84-13.65,15.18-14.76,1.44-.44,3.39-.67,5.84-.67s3.67.67,3.67,2c0,.45-2,3.53-6,9.26-4,5.73-7.98,12.26-11.93,19.6-3.95,7.34-5.92,12.84-5.92,16.51s1.28,5.5,3.84,5.5c4.78,0,10.28-3.11,16.51-9.34s14.4-16.07,24.52-29.52c2.78-4,7.23-6,13.34-6,3.34,0,5,.67,5,2,0,.33-.17.78-.5,1.33-17.46,26.91-27.97,46.2-31.53,57.88-.45,1.33-1,2-1.67,2h-.5c-4.45,0-6.67-3.56-6.67-10.67l.67-6.34Z" fill="#fff"/>
  <path d="M303.42,155.97c0-4.45,1.83-11.37,5.5-20.77,3.67-9.4,7.78-18.54,12.34-27.44,4.56-8.9,10.73-19.85,18.51-32.86,11.56-19.24,23.46-38.31,35.7-57.21,1.89-3,4.84-5.45,8.84-7.34,4-1.89,7.62-2.83,10.84-2.83s4.89.89,5,2.67c0,.56-.33,1.17-1,1.83-3.78,3.45-10.12,11.43-19.01,23.94-8.9,12.51-18.32,26.83-28.27,42.95-9.95,16.12-18.68,33.14-26.19,51.04-7.51,17.9-11.26,32.53-11.26,43.87,0,1.67-.5,2.5-1.5,2.5-1.89,0-3.5-.7-4.84-2.08-1.33-1.39-2.28-3.14-2.84-5.25-1.22-4.23-1.83-8.56-1.83-13.01Z" fill="#fff"/>
  <path d="M369.47,143.79l.33-3.5c0-.89-.33-1.33-1-1.33-1,0-3.03,1.45-6.09,4.34-3.06,2.89-6.9,5.81-11.51,8.76-4.62,2.94-9.23,4.42-13.84,4.42s-6.92-3.39-6.92-10.17c0-8.45,3.67-18.18,11.01-29.19,3.78-5.56,8.14-10.7,13.09-15.43,4.95-4.73,10.98-8.62,18.1-11.68,7.11-3.06,14.57-4.59,22.35-4.59,4.11,0,7.62,1.08,10.51,3.25,2.89,2.17,4.34,4.84,4.34,8.01s-.95,4.75-2.83,4.75c-1,0-2.34-.61-4-1.83-3.11-2.11-8.01-3.17-14.68-3.17-8.79,0-17.1,3.98-24.94,11.93-7.84,7.95-11.76,15.82-11.76,23.6,0,1,.3,1.95.92,2.83.61.89,1.47,1.33,2.58,1.33,3.34,0,7.62-2.31,12.84-6.92,5.23-4.61,10.34-11.26,15.35-19.93.33-1,1.56-1.94,3.67-2.84,2.11-.89,4.61-1.33,7.51-1.33,4.11.33,6.17,1.22,6.17,2.67,0,.11-.42.81-1.25,2.08-.83,1.28-2.31,3.59-4.42,6.92-2.11,3.34-5.09,8.81-8.92,16.43-3.84,7.62-6.09,13.65-6.75,18.1-.11,1.33-.67,2-1.67,2-5.45,0-8.17-3.17-8.17-9.51Z" fill="#fff"/>
</svg>