<svg viewBox="0 0 225 22.75" xmlns="http://www.w3.org/2000/svg"><path d="M.88 16.3l1.79-4.77h5.16L6 16.3zm7.57 0l1.79-4.77h5.16l-1.79 4.77H8.44m2.67-7l1.79-4.77h5.16l-1.78 4.81h-5.17m10.35-7.87H27c4.06 0 5.09 2.28 5.08 4.15s-1 4.15-5.09 4.15H23.6v6.53h-2.16V1.47zM23.6 8h2.82c1.7 0 3.41-.38 3.41-2.39s-1.7-2.39-3.4-2.39h-2.82V8zm11.46-6.57a1.44 1.44 0 0 1 1.48 1.38 1.5 1.5 0 1 1-3 0 1.45 1.45 0 0 1 1.52-1.38zM34 6.37h2v9.93h-2zm4.89 0h2V7.9a3.8 3.8 0 0 1 3.5-1.78 3.54 3.54 0 0 1 3.85 3.79v6.39h-2v-5.87a2.27 2.27 0 0 0-2.42-2.55c-1.68 0-3 1-3 3.31v5.11h-2V6.37zM58.66 9A3.48 3.48 0 0 0 56 7.9a3.25 3.25 0 0 0-3.32 3.52 3.28 3.28 0 0 0 3.19 3.37h.24a3.25 3.25 0 0 0 2.58-1.11L60.13 15a5.43 5.43 0 0 1-4 1.53c-3.27 0-5.56-2.12-5.55-5.17s2.25-5.23 5.56-5.23a5.64 5.64 0 0 1 4.08 1.57zM61.54.46h2v10.22l4.58-4.29h2.8l-5 4.5 5.37 5.4h-2.82l-4.93-5.15v5.16h-2V.47zm11.29 5.9h2V7.9a3.8 3.8 0 0 1 3.5-1.78 3.54 3.54 0 0 1 3.85 3.79v6.39h-2v-5.87a2.27 2.27 0 0 0-2.38-2.55c-1.68 0-3 1-3 3.31v5.11h-2V6.37zM86.47 12c0 1.74 1.72 2.89 3.58 2.89A3.74 3.74 0 0 0 93 13.43l1.52 1.09a5.73 5.73 0 0 1-4.71 2 5.1 5.1 0 0 1-5.45-4.73v-.48a5.21 5.21 0 0 1 5.2-5.22h.3c3.71 0 5.15 2.7 5.15 5.26V12zm6.37-1.51a2.78 2.78 0 0 0-3.07-2.89 3.19 3.19 0 0 0-3.3 2.89zm3-4.15h2.33l3.15 7.75 3-7.75h2.17l-5.05 12.06c-.72 1.72-1.41 2.89-3.63 2.89A5.18 5.18 0 0 1 96 21l.25-1.72a3.45 3.45 0 0 0 1.21.23c1.28 0 1.66-.65 2.06-1.63l.65-1.57-4.41-10zm12.63-4.87h2.15v6.16h8.23V1.47H121V16.3h-2.15V9.51h-8.23v6.79h-2.15zm25.15 14.83h-2v-1.53a3.81 3.81 0 0 1-3.5 1.78 3.54 3.54 0 0 1-3.85-3.79V6.37h2v5.86a2.27 2.27 0 0 0 2.42 2.55c1.68 0 3-1 3-3.31v-5.1h2v9.93zm13.38-.09c0 3-2.34 5.11-5.81 5.11a7.47 7.47 0 0 1-5.2-1.78l1.35-1.54a5.1 5.1 0 0 0 3.79 1.61c3 0 3.83-1.76 3.84-3.43v-1.52h-.07a4.28 4.28 0 0 1-3.68 1.76 5.1 5.1 0 0 1-5.39-4.79v-.3a5.1 5.1 0 0 1 5-5.22h.43a4.65 4.65 0 0 1 3.7 1.67V6.37h2v9.84zm-9-4.88a3.5 3.5 0 1 0 3.5-3.5 3.5 3.5 0 0 0-3.5 3.5zm16.86-5.21a5.41 5.41 0 0 1 5.64 5.17 5.67 5.67 0 0 1-11.3 0 5.42 5.42 0 0 1 5.62-5.21zm0 8.67a3.29 3.29 0 0 0 3.5-3.45 3.5 3.5 0 1 0-7 0 3.29 3.29 0 0 0 3.12 3.45zM176.71 8v7.31a13.6 13.6 0 0 1-6 1.36c-5.38 0-8.49-3.58-8.49-7.79 0-4.4 3.44-7.79 8.28-7.79 2.91 0 4.68.73 5.92 1.93l-1.53 1.53A6.26 6.26 0 0 0 170.48 3a5.76 5.76 0 0 0-6 5.51v.39a5.92 5.92 0 0 0 5.94 5.9h.22a8.88 8.88 0 0 0 3.9-.77V9.89H171V8zm3.07-1.63h2V7.9A3.63 3.63 0 0 1 185 6.12a3.08 3.08 0 0 1 .9.13l-.09 2a4.19 4.19 0 0 0-1-.15c-2 0-3 1-3.05 3.18v5h-2V6.37zm13.09-.25a5.41 5.41 0 0 1 5.64 5.17 5.67 5.67 0 0 1-11.3 0 5.42 5.42 0 0 1 5.62-5.21zm0 8.67a3.29 3.29 0 0 0 3.5-3.45 3.5 3.5 0 0 0-7 0 3.28 3.28 0 0 0 3.1 3.45zm17.26 1.51h-2v-1.53a3.81 3.81 0 0 1-3.5 1.78 3.54 3.54 0 0 1-3.85-3.79V6.37h2v5.86a2.27 2.27 0 0 0 2.42 2.55c1.68 0 3-1 3-3.31v-5.1h2v9.93zm2.72-9.93h2v1.42a4.66 4.66 0 0 1 3.7-1.67 5.09 5.09 0 0 1 5.39 4.77v.44a5.09 5.09 0 0 1-5 5.22h-.45a4.55 4.55 0 0 1-3.7-1.68v7.33h-2V6.37zm2 5a3.5 3.5 0 1 0 7 0 3.5 3.5 0 0 0-7 0z" fill="#fff"/></svg>