<svg xmlns="http://www.w3.org/2000/svg" viewBox="0 0 225 22.8"><path fill="#fff" d="M.9 16.3l1.8-4.8h5.1L6 16.3zm7.6 0l1.7-4.8h5.2l-1.8 4.8H8.4m2.7-7L13 4.5h5.2l-1.8 4.8H11m10.4-7.8H27c4 0 5 2.2 5 4.1s-1 4.2-5 4.2h-3.4v6.5h-2.2V1.5zM23.6 8h2.8c1.7 0 3.4-.4 3.4-2.4s-1.7-2.4-3.4-2.4h-2.8V8zm11.5-6.6a1.4 1.4 0 011.4 1.4 1.5 1.5 0 11-3 0 1.4 1.4 0 011.6-1.4zm-1.1 5h2v9.9h-2zm4.9 0h2v1.5a3.8 3.8 0 013.5-1.8 3.5 3.5 0 013.8 3.8v6.4h-2v-5.9A2.3 2.3 0 0043.8 8c-1.7 0-3 1-3 3.3v5.1h-2v-10zM58.7 9A3.5 3.5 0 0056 7.9a3.3 3.3 0 00-3.3 3.5 3.3 3.3 0 003.2 3.4h.2a3.3 3.3 0 002.6-1.1L60 15a5.4 5.4 0 01-4 1.5c-3.2 0-5.5-2-5.5-5.1S52.8 6 56 6a5.6 5.6 0 014.1 1.6zM61.5.5h2v10.2l4.6-4.3H71l-5 4.5 5.4 5.4h-2.8l-5-5.2v5.2h-2V.5zm11.3 5.9h2v1.5a3.8 3.8 0 013.5-1.8 3.5 3.5 0 013.9 3.8v6.4h-2v-5.9A2.3 2.3 0 0077.8 8c-1.7 0-3 1-3 3.3v5.1h-2v-10zM86.5 12c0 1.7 1.7 2.9 3.5 2.9a3.7 3.7 0 003-1.5l1.5 1.1a5.7 5.7 0 01-4.7 2 5.1 5.1 0 01-5.4-4.7v-.5a5.2 5.2 0 015.2-5.2h.3c3.7 0 5.1 2.7 5.1 5.2v.7zm6.3-1.5a2.8 2.8 0 00-3-2.9 3.2 3.2 0 00-3.3 2.9zm3-4.2h2.4l3.1 7.8 3-7.8h2.2l-5 12.1c-.8 1.7-1.5 2.9-3.7 2.9A5.2 5.2 0 0196 21l.3-1.7a3.5 3.5 0 001.2.2c1.2 0 1.6-.6 2-1.6l.7-1.6-4.4-10zm12.7-4.8h2.1v6.1h8.3V1.5h2.1v14.8h-2.1V9.5h-8.3v6.8h-2.1zm25.1 14.8h-2v-1.5a3.8 3.8 0 01-3.5 1.8 3.5 3.5 0 01-3.8-3.8V6.4h2v5.8a2.3 2.3 0 002.4 2.6c1.7 0 3-1 3-3.3V6.4h2v9.9zm13.4 0c0 3-2.3 5-5.8 5a7.5 7.5 0 01-5.2-1.8l1.3-1.5a5.1 5.1 0 003.8 1.6c3 0 3.9-1.8 3.9-3.4v-1.5h-.1a4.3 4.3 0 01-3.7 1.7 5.1 5.1 0 01-5.4-4.8v-.3a5.1 5.1 0 015-5.2h.5a4.7 4.7 0 013.7 1.7V6.4h2v9.8zm-9-5a3.5 3.5 0 103.5-3.5 3.5 3.5 0 00-3.5 3.5zm16.9-5.2a5.4 5.4 0 015.6 5.2 5.7 5.7 0 01-11.3 0 5.4 5.4 0 015.6-5.2zm0 8.7a3.3 3.3 0 003.5-3.5 3.5 3.5 0 10-7 0 3.3 3.3 0 003 3.5zM176.7 8v7.3a13.6 13.6 0 01-6 1.4c-5.4 0-8.5-3.6-8.5-7.8 0-4.4 3.5-7.8 8.3-7.8 3 0 4.7.7 6 2l-1.6 1.4a6.3 6.3 0 00-4.4-1.5 5.8 5.8 0 00-6 5.5V9a6 6 0 006 5.9h.1a8.9 8.9 0 004-.8V10H171V8zm3-1.6h2v1.5a3.6 3.6 0 013.3-1.8 3 3 0 01.9.2v2a4.2 4.2 0 00-1-.2c-2 0-3 1-3.1 3.2v5h-2v-10zM193 6a5.4 5.4 0 015.6 5.2 5.7 5.7 0 01-11.3 0 5.4 5.4 0 015.6-5.2zm0 8.7a3.3 3.3 0 003.5-3.5 3.5 3.5 0 00-7 0 3.3 3.3 0 003 3.5zm17.2 1.5h-2v-1.5a3.8 3.8 0 01-3.5 1.8 3.5 3.5 0 01-3.8-3.8V6.4h2v5.8a2.3 2.3 0 002.4 2.6c1.7 0 3-1 3-3.3V6.4h2v9.9zm2.8-10h2v1.5a4.7 4.7 0 013.6-1.7A5 5 0 01224 11v.4a5 5 0 01-5 5.2h-.4a4.5 4.5 0 01-3.7-1.6v7.3h-2V6.4zm2 5a3.5 3.5 0 107 0 3.5 3.5 0 00-7 0z"/></svg>