<svg id="Layer_1" xmlns="http://www.w3.org/2000/svg" viewBox="0 0 123.4 34.7"><style>.st0{fill:#fff}</style><path class="st0" d="M32.3 3.9l-.1-.1-.1.1.1.1c.1 0 .1-.1.1-.1zM29.8 7c.6-.4 1.2-.7 1.7-.9-.2.5-.6 1.1-.9 1.7-.3.4-.6.9-.9 1.4-.4-.5-.8-.9-1.3-1.3.5-.3 1-.6 1.4-.9zM8.9 22.4c-3.3 4.7-4.8 8.5-3.5 9.8 2.1 2.1 10.5-2.8 18.7-11s13.2-16.6 11-18.7c-1.3-1.3-5.1.1-9.8 3.5-1.5-.7-3.3-1.1-5-1.1-6.9 0-12.5 5.6-12.5 12.5 0 1.7.4 3.5 1.1 5zm2 3.1c.4.5.8.9 1.3 1.3-.5.3-.9.6-1.4.9-.6.4-1.2.7-1.7.9.2-.5.6-1.1.9-1.7.2-.5.5-.9.9-1.4zm-4.1 3.8s.1 0 .1-.1c0 0 0-.1-.1-.1s-.1 0-.1.1.1.1.1.1zm1.5 1.5v.2c0 .1.1 0 .2 0v-.2c-.1-.1-.1-.1-.2 0 0-.1 0 0 0 0zM33.7 5.4c-.1 0-.1.1-.1.1 0 .1.1.1.1.1.1 0 .1-.1.1-.1.1-.2 0-.2-.1-.1 0-.1 0-.1 0 0zM20.3 29.8c6.9 0 12.5-5.6 12.5-12.5 0-1-.1-1.9-.3-2.8-1.9 2.6-4.3 5.3-7 8s-5.4 5.1-8 7c.9.2 1.8.3 2.8.3zM55.9 27h-3.1l-8-12.7V27h-3.1V9.2h3.1l8 12.7V9.2h3.1V27zm9.2.3c-1.9 0-3.4-.6-4.6-1.8-1.2-1.2-1.8-2.8-1.8-4.8v-.4c0-1.3.3-2.5.8-3.6.5-1 1.2-1.9 2.2-2.4.9-.6 2-.9 3.1-.9 1.8 0 3.2.6 4.2 1.7 1 1.2 1.5 2.8 1.5 4.9v1.2h-8.7c.1 1.1.5 2 1.1 2.6s1.5 1 2.4 1c1.4 0 2.5-.6 3.3-1.7l1.6 1.5c-.5.8-1.2 1.4-2.1 1.8s-1.9.9-3 .9zm-.3-11.4c-.8 0-1.5.3-2 .9-.5.6-.8 1.4-1 2.4h5.7V19c-.1-1-.3-1.8-.8-2.3-.5-.5-1.1-.8-1.9-.8zm19.6 4.6c0 2.1-.5 3.7-1.4 4.9s-2.2 1.8-3.8 1.8c-1.6 0-2.8-.6-3.6-1.7l-.1 1.5h-2.7V8.2h3V15c.9-1 2-1.5 3.5-1.5 1.6 0 2.9.6 3.8 1.8s1.4 2.9 1.4 5v.2zm-3-.2c0-1.4-.3-2.5-.8-3.2-.5-.7-1.2-1.1-2.2-1.1-1.3 0-2.2.6-2.7 1.7v5.5c.5 1.2 1.4 1.7 2.8 1.7.9 0 1.7-.3 2.2-1 .5-.7.8-1.7.8-3.2v-.4zM95 25.7c-.9 1-2.1 1.5-3.7 1.5-1.4 0-2.5-.4-3.3-1.3-.7-.8-1.1-2.1-1.1-3.7v-8.6h3v8.6c0 1.7.7 2.5 2.1 2.5 1.4 0 2.4-.5 2.9-1.6v-9.5h3V27H95v-1.3zm9.1 1.3h-3V8.2h3V27zm11.2 0c-.1-.3-.2-.7-.3-1.2-.9 1-2.1 1.5-3.5 1.5-1.3 0-2.4-.4-3.3-1.1-.8-.8-1.3-1.7-1.3-2.8 0-1.4.5-2.5 1.6-3.3 1.1-.8 2.6-1.1 4.5-1.1h1.8v-.9c0-.7-.2-1.2-.6-1.7-.4-.4-1-.6-1.8-.6-.7 0-1.2.2-1.7.5s-.7.8-.7 1.3h-3c0-.7.2-1.4.7-2 .5-.6 1.1-1.1 2-1.5.8-.4 1.8-.5 2.8-.5 1.6 0 2.8.4 3.7 1.2s1.4 1.9 1.4 3.3v6c0 1.2.2 2.1.5 2.9h-2.8zm-3.3-2.1c.6 0 1.1-.1 1.7-.4s.9-.7 1.2-1.2v-2.5h-1.6c-1.1 0-1.9.2-2.5.6-.6.4-.8.9-.8 1.6 0 .6.2 1 .6 1.4s.7.5 1.4.5z"/></svg>