<?xml version="1.0" encoding="utf-8"?>
<!-- Generator: Adobe Illustrator 24.2.3, SVG Export Plug-In . SVG Version: 6.00 Build 0)  -->
<svg version="1.1" id="Layer_1" xmlns="http://www.w3.org/2000/svg" xmlns:xlink="http://www.w3.org/1999/xlink" x="0px" y="0px"
	 viewBox="0 0 123.4 34.7" style="enable-background:new 0 0 123.4 34.7;" xml:space="preserve">
<style type="text/css">
	.st0{fill:#FFFFFF;}
</style>
<path class="st0" d="M32.3,3.9c0,0-0.1-0.1-0.1-0.1c0,0-0.1,0.1-0.1,0.1c0,0,0.1,0.1,0.1,0.1C32.3,4,32.3,3.9,32.3,3.9L32.3,3.9z
	 M29.8,7c0.6-0.4,1.2-0.7,1.7-0.9c-0.2,0.5-0.6,1.1-0.9,1.7c-0.3,0.4-0.6,0.9-0.9,1.4c-0.4-0.5-0.8-0.9-1.3-1.3
	C28.9,7.6,29.4,7.3,29.8,7L29.8,7z M8.9,22.4c-3.3,4.7-4.8,8.5-3.5,9.8c2.1,2.1,10.5-2.8,18.7-11s13.2-16.6,11-18.7
	c-1.3-1.3-5.1,0.1-9.8,3.5c-1.5-0.7-3.3-1.1-5-1.1c-6.9,0-12.5,5.6-12.5,12.5C7.8,19.1,8.2,20.9,8.9,22.4z M10.9,25.5
	c0.4,0.5,0.8,0.9,1.3,1.3c-0.5,0.3-0.9,0.6-1.4,0.9c-0.6,0.4-1.2,0.7-1.7,0.9c0.2-0.5,0.6-1.1,0.9-1.7C10.2,26.4,10.5,26,10.9,25.5
	L10.9,25.5z M6.8,29.3c0,0,0.1,0,0.1-0.1c0,0,0-0.1-0.1-0.1s-0.1,0-0.1,0.1C6.7,29.3,6.8,29.3,6.8,29.3z M8.3,30.8c0,0,0,0.1,0,0.2
	s0.1,0,0.2,0c0,0,0,0,0,0c0,0,0-0.1,0-0.2C8.4,30.7,8.4,30.7,8.3,30.8C8.3,30.7,8.3,30.8,8.3,30.8z M33.7,5.4
	c-0.1,0-0.1,0.1-0.1,0.1c0,0.1,0.1,0.1,0.1,0.1c0,0,0,0,0,0c0.1,0,0.1-0.1,0.1-0.1C33.9,5.3,33.8,5.3,33.7,5.4
	C33.7,5.3,33.7,5.3,33.7,5.4z M20.3,29.8c6.9,0,12.5-5.6,12.5-12.5c0-1-0.1-1.9-0.3-2.8c-1.9,2.6-4.3,5.3-7,8s-5.4,5.1-8,7
	C18.4,29.7,19.3,29.8,20.3,29.8z"/>
<g>
	<path class="st0" d="M55.9,27h-3.1l-8-12.7V27h-3.1V9.2h3.1l8,12.7V9.2h3.1V27z"/>
	<path class="st0" d="M65.1,27.3c-1.9,0-3.4-0.6-4.6-1.8c-1.2-1.2-1.8-2.8-1.8-4.8v-0.4c0-1.3,0.3-2.5,0.8-3.6
		c0.5-1,1.2-1.9,2.2-2.4c0.9-0.6,2-0.9,3.1-0.9c1.8,0,3.2,0.6,4.2,1.7c1,1.2,1.5,2.8,1.5,4.9v1.2h-8.7c0.1,1.1,0.5,2,1.1,2.6
		s1.5,1,2.4,1c1.4,0,2.5-0.6,3.3-1.7l1.6,1.5c-0.5,0.8-1.2,1.4-2.1,1.8S66.2,27.3,65.1,27.3z M64.8,15.9c-0.8,0-1.5,0.3-2,0.9
		c-0.5,0.6-0.8,1.4-1,2.4h5.7v-0.2c-0.1-1-0.3-1.8-0.8-2.3C66.2,16.2,65.6,15.9,64.8,15.9z"/>
	<path class="st0" d="M84.4,20.5c0,2.1-0.5,3.7-1.4,4.9s-2.2,1.8-3.8,1.8c-1.6,0-2.8-0.6-3.6-1.7L75.5,27h-2.7V8.2h3V15
		c0.9-1,2-1.5,3.5-1.5c1.6,0,2.9,0.6,3.8,1.8s1.4,2.9,1.4,5V20.5z M81.4,20.3c0-1.4-0.3-2.5-0.8-3.2c-0.5-0.7-1.2-1.1-2.2-1.1
		c-1.3,0-2.2,0.6-2.7,1.7v5.5c0.5,1.2,1.4,1.7,2.8,1.7c0.9,0,1.7-0.3,2.2-1c0.5-0.7,0.8-1.7,0.8-3.2V20.3z"/>
	<path class="st0" d="M95,25.7c-0.9,1-2.1,1.5-3.7,1.5c-1.4,0-2.5-0.4-3.3-1.3c-0.7-0.8-1.1-2.1-1.1-3.7v-8.6h3v8.6
		c0,1.7,0.7,2.5,2.1,2.5c1.4,0,2.4-0.5,2.9-1.6v-9.5h3V27H95L95,25.7z"/>
	<path class="st0" d="M104.1,27h-3V8.2h3V27z"/>
	<path class="st0" d="M115.3,27c-0.1-0.3-0.2-0.7-0.3-1.2c-0.9,1-2.1,1.5-3.5,1.5c-1.3,0-2.4-0.4-3.3-1.1c-0.8-0.8-1.3-1.7-1.3-2.8
		c0-1.4,0.5-2.5,1.6-3.3c1.1-0.8,2.6-1.1,4.5-1.1h1.8v-0.9c0-0.7-0.2-1.2-0.6-1.7c-0.4-0.4-1-0.6-1.8-0.6c-0.7,0-1.2,0.2-1.7,0.5
		s-0.7,0.8-0.7,1.3h-3c0-0.7,0.2-1.4,0.7-2c0.5-0.6,1.1-1.1,2-1.5c0.8-0.4,1.8-0.5,2.8-0.5c1.6,0,2.8,0.4,3.7,1.2s1.4,1.9,1.4,3.3v6
		c0,1.2,0.2,2.1,0.5,2.9V27H115.3z M112,24.9c0.6,0,1.1-0.1,1.7-0.4s0.9-0.7,1.2-1.2v-2.5h-1.6c-1.1,0-1.9,0.2-2.5,0.6
		c-0.6,0.4-0.8,0.9-0.8,1.6c0,0.6,0.2,1,0.6,1.4S111.3,24.9,112,24.9z"/>
</g>
</svg>
