<svg xmlns="http://www.w3.org/2000/svg" id="b54dac4d-3497-400d-abfe-a1209e8b7387" data-name="Layer 1" viewBox="0 0 512 512"><defs><style></style></defs><path d="M0 0h512v512H0z" class="316846d1-7f94-4838-b676-58f0adb47b46"/><path d="M173.81 256.38q0 11-5.39 16.72t-15.79 5.72q-10.25 0-15.72-5.75t-5.47-16.74q0-10.88 5.44-16.61t15.81-5.72q10.4 0 15.76 5.69t5.36 16.69zm-30 0q0 12.63 8.79 12.63 4.47 0 6.63-3.07t2.16-9.56q0-6.53-2.19-9.64a7.47 7.47 0 0 0-6.54-3.11q-8.82 0-8.82 12.75zm49.46 21.84h-11.59v-43.56h25.74v9.45h-14.15v8.31h13.05v9.45h-13.05v16.36zm32.89 0h-11.59v-43.56h25.74v9.45h-14.15v8.31h13.05v9.45h-13.05v16.36zm21.31 0v-43.56h11.77v34.06H276v9.5h-28.53zm35.53 0v-43.56h11.83v43.56H283zm62.7 0h-15.43l-15.91-30.69h-.27q.57 7.24.57 11.05v19.64h-10.43v-43.56h15.37l15.85 30.27h.18q-.42-6.58-.42-10.58v-19.69h10.49v43.56zm35.3 0h-25.88v-43.56H381v9.45h-14.11V251h13.05v9.45h-13.05v8.22H381v9.59z" class="499a2b84-ed77-4b94-b45a-34e0b3af79ae"/></svg>