<?xml version="1.0" encoding="utf-8"?>
<!-- Generator: Adobe Illustrator 16.0.0, SVG Export Plug-In . SVG Version: 6.00 Build 0)  -->
<!DOCTYPE svg PUBLIC "-//W3C//DTD SVG 1.1//EN" "http://www.w3.org/Graphics/SVG/1.1/DTD/svg11.dtd">
<svg version="1.1" id="Layer_1" xmlns="http://www.w3.org/2000/svg" xmlns:xlink="http://www.w3.org/1999/xlink" x="0px" y="0px"
	 width="300px" height="200px" viewBox="0 0 300 200" enable-background="new 0 0 300 200" xml:space="preserve">
<g id="Logo_1_">
	<g>
		<g>
			<path fill="#FFFFFF" d="M29.952,162.469c-13.572,0-24.465-10.52-24.465-24.155c0-13.821,11.144-23.717,24.651-23.717
				c9.962,0,20.231,6.472,23.034,16.309H39.975c-2.117-3.799-5.791-5.976-10.148-5.976c-7.532,0-12.574,6.099-12.574,13.384
				c0,7.534,4.792,13.819,12.638,13.819c5.04,0,9.585-2.303,11.018-7.405h-13.76v-9.4h27.33c0.062,0.808,0.062,1.617,0.062,2.425
				C54.542,151.887,44.082,162.469,29.952,162.469z"/>
		</g>
		<path fill="#FFFFFF" d="M57.523,161.535v-46.065H83.11v10.333H68.792v7.158h13.882v10.334H68.792v7.906H83.11v10.334H57.523z"/>
		<path fill="#FFFFFF" d="M118.688,161.535l-2.241-6.661h-16l-2.426,6.661H85.383l18.49-46.065h9.272l18.306,46.065H118.688z
			 M108.604,129.786h-0.063h-0.125l-4.729,15.75h9.646L108.604,129.786z"/>
		<path fill="#FFFFFF" d="M156.816,161.535l-10.644-14.877h-0.125v14.877H134.78v-46.065h14.567c4.854,0,10.21,0.122,14.193,3.297
			c3.799,3.053,5.668,7.783,5.668,12.576c0,7.098-4.174,13.32-11.456,14.506l12.514,15.687H156.816z M150.343,125.802h-4.294v12.824
			h4.17c4.42,0,7.719-1.869,7.719-6.598C157.938,127.484,154.392,125.802,150.343,125.802z"/>
		<path fill="#FFFFFF" d="M188.039,162.407c-9.277,0-16.623-4.796-16.623-14.629v-1.497h11.703c0,2.991,1.37,6.289,4.795,6.289
			c2.426,0,4.48-1.928,4.48-4.417c0-2.989-2.489-3.984-4.917-5.044c-1.37-0.621-2.741-1.182-4.11-1.744
			c-5.976-2.488-11.265-5.976-11.265-13.195c0-8.592,8.276-13.571,16.122-13.571c4.482,0,9.524,1.68,12.45,5.228
			c2.365,2.927,2.926,5.478,3.049,9.089h-11.639c-0.374-2.552-1.246-4.481-4.237-4.481c-2.052,0-4.044,1.431-4.044,3.61
			c0,0.685,0.062,1.37,0.437,1.93c1.12,1.867,7.159,4.232,9.09,5.106c6.1,2.801,10.768,5.977,10.768,13.197
			C204.098,157.925,197.128,162.407,188.039,162.407z"/>
		<path fill="#FFFFFF" d="M207.443,161.535v-46.065h11.766v46.065H207.443z"/>
		<path fill="#FFFFFF" d="M239.079,161.535h-16.121v-46.065h15.251c8.343,0,15.127,1.368,20.355,8.589
			c2.989,4.17,4.235,9.215,4.235,14.32C262.8,153.504,254.145,161.535,239.079,161.535z M239.827,125.802h-5.104v25.398h5.043
			c8.03,0,11.268-5.167,11.268-12.638C251.033,131.219,247.671,125.802,239.827,125.802z"/>
		<path fill="#FFFFFF" d="M265.797,161.535v-46.065h25.584v10.333h-14.317v7.158h13.881v10.334h-13.881v7.906h14.317v10.334H265.797
			z"/>
		<g>
			<path fill="#FFFFFF" d="M82.841,188.396c-6.544,0-11.947-5.186-11.947-11.792c0-6.667,5.279-11.821,11.916-11.821
				c3.457,0,6.73,1.48,9.015,4.073c0.586,0.648,1.111,1.359,1.45,2.161h-2.562c-1.76-2.622-4.786-4.167-7.934-4.167
				c-5.249,0-9.6,4.601-9.6,9.787c0,5.125,4.476,9.694,9.631,9.694c3.303,0,6.049-1.731,7.995-4.324h2.563
				C91.269,185.866,87.255,188.396,82.841,188.396z"/>
			<path fill="#FFFFFF" d="M107.848,179.476l6.454,8.521h-2.873l-7.747-10.342c1.418,0,3.518,0.093,4.908-0.339
				c2.222-0.68,3.767-2.47,3.767-4.847c0-1.728-0.957-3.55-2.501-4.383c-1.42-0.771-2.84-0.865-4.446-0.865h-3.982v20.775h-2.284
				v-22.845h5.804c1.729,0,4.013,0.094,5.617,0.865c2.563,1.234,4.074,3.674,4.074,6.513
				C114.639,176.42,111.677,179.231,107.848,179.476z"/>
			<path fill="#FFFFFF" d="M120.2,187.997v-22.845h12.501v2.069h-10.216v8.211h9.877v2.068h-9.877v8.427h10.216v2.069H120.2z"/>
			<path fill="#FFFFFF" d="M156.905,187.997l-3.305-7.687h-10.617l-3.336,7.687h-2.375l9.754-22.845h2.562l9.816,22.845H156.905z
				 M148.323,167.747l-4.475,10.495h8.86L148.323,167.747z"/>
			<path fill="#FFFFFF" d="M167.279,167.222v20.775h-2.283v-20.775h-5.25v-2.069h12.75v2.069H167.279z"/>
			<path fill="#FFFFFF" d="M177.375,187.997v-22.845h2.286v22.845H177.375z"/>
			<path fill="#FFFFFF" d="M196.239,187.997h-2.253l-9.416-22.845h2.531l8.057,20.002l8.091-20.002h2.466L196.239,187.997z"/>
			<path fill="#FFFFFF" d="M210.473,187.997v-22.845h12.504v2.069h-10.218v8.211h9.875v2.068h-9.875v8.427h10.218v2.069H210.473z"/>
		</g>
		<path fill="#FFFFFF" d="M194.435,46.503c-0.657-3.031-1.613-6.043-2.893-8.996c-1.276-2.943-2.815-5.687-4.567-8.231
			l-38.48,16.683l-3.214-7.42c-0.008-0.016-0.019-0.03-0.025-0.044c-1.088-2.513-2.234,0.062-2.325,0.277l-7.082,17.925l0.014,0.008
			l-1.645,4.157c-0.375,0.948,0.062,2.009,0.967,2.443l22.234,8.785c0.429,0.146,2.775,0.861,1.74-1.523
			c-0.008-0.018-0.012-0.037-0.019-0.053l-3.178-7.33l18.347-7.956c0.495,8.928-3.479,17.664-10.697,23.136
			c-0.331,0.482-0.47,1.06-0.177,1.757l2.109,4.86c0.422,0.978-0.024,2.113-1.002,2.538l-6.691,2.898
			c-0.976,0.425-2.113-0.023-2.536-1l-2.141-4.941c-0.309-0.625-0.797-0.901-1.345-0.992c-2.729,0.476-5.474,0.524-8.146,0.173
			c-0.675,0.062-1.284,0.353-1.607,1.149l-1.947,4.926c-0.391,0.993-1.512,1.477-2.503,1.085l-6.779-2.677
			c-0.99-0.392-1.476-1.513-1.086-2.503l1.979-5.008c0.261-0.764,0.017-1.369-0.417-1.858c-2.016-1.448-3.824-3.168-5.372-5.104
			c-0.574-0.632-1.318-1.062-2.293-0.65l-4.859,2.106c-0.978,0.424-2.114-0.024-2.538-1.003l-2.9-6.687
			c-0.423-0.978,0.024-2.115,1.002-2.54l4.94-2.142c1.051-0.515,1.126-1.544,0.964-2.509l0.004-0.005
			c-0.014-0.101-0.019-0.199-0.029-0.299c-0.281-2.098-0.317-4.218-0.106-6.323c0.012-0.809-0.23-1.58-1.166-1.959l-4.926-1.948
			c-0.989-0.392-1.478-1.512-1.084-2.503l2.677-6.779c0.39-0.99,1.513-1.477,2.503-1.088l5.009,1.98
			c1.109,0.377,1.888-0.295,2.456-1.095h0.009c1.22-1.612,2.617-3.084,4.162-4.389l0.002-0.023c0.796-0.607,1.465-1.432,0.983-2.573
			l-2.106-4.86c-0.425-0.979,0.022-2.114,1-2.538l6.687-2.899c0.978-0.424,2.115,0.024,2.54,1l2.142,4.942
			c0.426,0.867,1.2,1.064,2,1.019c6.579-1.024,13.213,0.442,18.691,3.903l21.487-9.316C169.702,9.409,147.576,3.9,127.985,12.395
			c-24.484,10.617-35.727,39.071-25.112,63.555c10.616,24.484,39.07,35.727,63.557,25.112
			C187.96,91.726,199.244,68.599,194.435,46.503z"/>
	</g>
</g>
</svg>
