<?xml version="1.0" encoding="utf-8"?>
<!-- Generator: Adobe Illustrator 16.0.0, SVG Export Plug-In . SVG Version: 6.00 Build 0)  -->
<!DOCTYPE svg PUBLIC "-//W3C//DTD SVG 1.1//EN" "http://www.w3.org/Graphics/SVG/1.1/DTD/svg11.dtd">
<svg version="1.1" id="Layer_1" xmlns="http://www.w3.org/2000/svg" xmlns:xlink="http://www.w3.org/1999/xlink" x="0px" y="0px"
	 width="320px" height="80px" viewBox="0 0 320 80" enable-background="new 0 0 320 80" xml:space="preserve">
<g>
	<polygon fill-rule="evenodd" clip-rule="evenodd" fill="#0099D8" points="9.583,48.118 11.984,41.727 18.905,41.727 16.504,48.118 
		9.583,48.118 	"/>
	<polygon fill-rule="evenodd" clip-rule="evenodd" fill="#0099D8" points="19.727,48.118 22.127,41.727 29.048,41.727 
		26.647,48.118 19.727,48.118 	"/>
	<polygon fill-rule="evenodd" clip-rule="evenodd" fill="#0099D8" points="23.308,38.794 25.709,32.403 32.629,32.403 
		30.229,38.794 23.308,38.794 	"/>
</g>
<g>
	<path fill="#0093D0" d="M37.171,28.248h7.48c5.438,0,6.817,3.059,6.814,5.557c-0.002,2.498-1.387,5.557-6.824,5.557h-4.596
		l-0.008,8.757h-2.884L37.171,28.248z M40.047,37.004h3.785c2.283,0,4.567-0.505,4.569-3.199c0.003-2.694-2.28-3.199-4.563-3.199
		h-3.785L40.047,37.004z"/>
	<path fill="#0093D0" d="M55.406,28.191c1.082,0,1.982,0.842,1.981,1.853c0,1.01-0.902,1.853-1.984,1.853s-1.982-0.842-1.981-1.853
		S54.324,28.191,55.406,28.191z M54.048,34.815h2.704L56.74,48.118h-2.704L54.048,34.815z"/>
	<path fill="#0093D0" d="M60.597,34.815H63.3l-0.001,2.048h0.06c0.692-1.403,2.496-2.385,4.688-2.385
		c2.764,0,5.166,1.543,5.163,5.08l-0.008,8.56h-2.704l0.007-7.858c0.003-2.498-1.528-3.424-3.241-3.424
		c-2.253,0-3.967,1.347-3.969,4.434l-0.006,6.849h-2.704L60.597,34.815z"/>
	<path fill="#0093D0" d="M87.03,38.352c-0.99-0.983-2.041-1.488-3.543-1.488c-2.944,0-4.448,2.217-4.45,4.714
		c-0.002,2.499,1.798,4.519,4.592,4.519c1.502,0,2.554-0.505,3.456-1.487l1.921,1.797c-1.413,1.46-3.336,2.049-5.409,2.049
		c-4.386,0-7.448-2.835-7.444-6.933c0.003-4.098,3.01-7.016,7.457-7.016c2.073,0,4.055,0.674,5.466,2.105L87.03,38.352z"/>
	<path fill="#0093D0" d="M90.886,26.901h2.704l-0.012,13.695l6.134-5.752h3.755l-6.645,6.034l7.204,7.241h-3.846l-6.603-6.904
		l-0.006,6.904h-2.704L90.886,26.901z"/>
	<path fill="#0093D0" d="M106.021,34.815h2.703l-0.001,2.048h0.06c0.692-1.403,2.496-2.385,4.688-2.385
		c2.764,0,5.166,1.543,5.163,5.08l-0.008,8.56h-2.704l0.007-7.858c0.002-2.498-1.529-3.424-3.242-3.424
		c-2.253,0-3.967,1.347-3.969,4.434l-0.006,6.849h-2.704L106.021,34.815z"/>
	<path fill="#0093D0" d="M124.309,42.393c-0.002,2.329,2.31,3.873,4.803,3.873c1.652,0,2.854-0.786,3.907-1.992l2.042,1.458
		c-1.504,1.825-3.578,2.724-6.311,2.724c-4.506,0-7.328-3.032-7.324-6.988c0.003-3.985,3.101-6.988,7.367-6.988
		c5.017,0,6.937,3.592,6.933,7.016l0,0.898H124.309z M132.843,40.371c-0.058-2.216-1.378-3.872-4.112-3.872
		c-2.674,0-4.418,2.104-4.42,3.872H132.843z"/>
	<path fill="#0093D0" d="M136.813,34.815h3.125l4.227,10.384h0.06l4.035-10.384h2.914l-6.774,16.165
		c-0.963,2.301-1.896,3.873-4.87,3.873c-0.811,0-1.652-0.085-2.403-0.365l0.332-2.301c0.511,0.196,1.082,0.309,1.622,0.309
		c1.713,0,2.224-0.87,2.766-2.189l0.874-2.104L136.813,34.815z"/>
	<path fill="#A0CF67" d="M153.793,28.248h2.884l-0.007,8.251h11.025l0.008-8.251h2.884l-0.019,19.87h-2.884l0.009-9.093h-11.026
		l-0.008,9.093h-2.884L153.793,28.248z"/>
	<path fill="#A0CF67" d="M187.513,48.118h-2.704l0.002-2.049h-0.061c-0.692,1.402-2.496,2.386-4.688,2.386
		c-2.764,0-5.165-1.544-5.162-5.081l0.007-8.559h2.705l-0.008,7.858c-0.002,2.497,1.529,3.423,3.242,3.423
		c2.253,0,3.967-1.347,3.968-4.434l0.008-6.848h2.703L187.513,48.118z"/>
	<path fill="#A0CF67" d="M205.418,48.006c-0.004,4.014-3.131,6.848-7.787,6.848c-2.704,0-4.957-0.646-6.968-2.386l1.835-2.133
		c1.411,1.403,3.002,2.161,5.074,2.161c4.025,0,5.14-2.357,5.142-4.603l0.002-1.965h-0.091c-1.022,1.6-2.977,2.357-4.928,2.357
		c-4.177,0-7.268-2.946-7.234-6.819c0.004-3.929,2.83-6.988,7.246-6.988c1.922,0,3.905,0.813,4.954,2.245h0.062l0.002-1.908h2.702
		L205.418,48.006z M193.348,41.467c-0.004,2.694,1.797,4.462,4.682,4.462c2.884,0,4.688-1.768,4.69-4.462
		c0.002-2.695-1.798-4.631-4.682-4.631C195.153,36.836,193.349,38.772,193.348,41.467z"/>
	<path fill="#A0CF67" d="M215.944,34.479c4.235,0,7.567,3.115,7.564,6.988c-0.004,3.873-3.341,6.988-7.577,6.988
		s-7.568-3.115-7.564-6.988C208.37,37.593,211.709,34.479,215.944,34.479z M215.935,46.097c2.884,0,4.688-1.936,4.69-4.63
		c0.002-2.695-1.799-4.631-4.683-4.631s-4.688,1.936-4.691,4.631C211.249,44.161,213.051,46.097,215.935,46.097z"/>
	<path fill="#9FA1A4" d="M245.263,37.004l-0.009,9.795c-2.073,1.179-5.469,1.824-8.053,1.824c-7.21,0-11.381-4.799-11.377-10.44
		c0.005-5.894,4.606-10.44,11.096-10.44c3.904,0,6.278,0.982,7.929,2.582l-2.045,2.048c-1.741-1.571-3.754-2.104-5.887-2.104
		c-4.866,0-8.024,3.564-8.027,7.914c-0.005,4.491,3.567,7.914,8.254,7.914c2.013,0,3.936-0.365,5.228-1.038l0.006-5.528h-4.717
		l0.002-2.526H245.263z"/>
	<path fill="#9FA1A4" d="M249.381,34.815h2.704l-0.002,2.048h0.06c0.692-1.403,2.496-2.385,4.269-2.385
		c0.42,0,0.841,0.056,1.201,0.168l-0.122,2.722c-0.451-0.112-0.901-0.196-1.321-0.196c-2.645,0-4.087,1.347-4.091,4.267
		l-0.005,6.679h-2.705L249.381,34.815z"/>
	<path fill="#9FA1A4" d="M266.925,34.479c4.236,0,7.568,3.115,7.565,6.988c-0.004,3.873-3.342,6.988-7.577,6.988
		c-4.236,0-7.567-3.115-7.563-6.988C259.353,37.593,262.689,34.479,266.925,34.479z M266.915,46.097c2.884,0,4.688-1.936,4.69-4.63
		c0.003-2.695-1.798-4.631-4.682-4.631c-2.885,0-4.689,1.936-4.69,4.631C262.23,44.161,264.031,46.097,266.915,46.097z"/>
	<path fill="#9FA1A4" d="M290.046,48.118h-2.704l0.001-2.049h-0.059c-0.692,1.402-2.496,2.386-4.688,2.386
		c-2.764,0-5.167-1.544-5.163-5.081l0.007-8.559h2.704l-0.007,7.858c-0.003,2.497,1.529,3.423,3.241,3.423
		c2.253,0,3.967-1.347,3.97-4.434l0.006-6.848h2.704L290.046,48.118z"/>
	<path fill="#9FA1A4" d="M293.692,34.815h2.704l-0.002,1.908h0.061c1.053-1.432,3.036-2.245,4.959-2.245
		c4.416,0,7.237,3.059,7.233,6.988c-0.004,3.985-2.86,6.988-7.246,6.988c-2.043,0-3.995-0.87-4.955-2.246h-0.061l-0.009,9.823
		h-2.703L293.692,34.815z M296.391,41.467c-0.003,2.694,1.798,4.63,4.682,4.63c2.885,0,4.688-1.936,4.69-4.63
		c0.004-2.695-1.798-4.631-4.682-4.631S296.393,38.772,296.391,41.467z"/>
</g>
</svg>
