<?xml version="1.0" encoding="utf-8"?>
<!-- Generator: Adobe Illustrator 16.0.0, SVG Export Plug-In . SVG Version: 6.00 Build 0)  -->
<!DOCTYPE svg PUBLIC "-//W3C//DTD SVG 1.1//EN" "http://www.w3.org/Graphics/SVG/1.1/DTD/svg11.dtd">
<svg version="1.1" id="Layer_9" xmlns="http://www.w3.org/2000/svg" xmlns:xlink="http://www.w3.org/1999/xlink" x="0px" y="0px"
	 width="14px" height="14px" viewBox="0 0 14 14" enable-background="new 0 0 14 14" xml:space="preserve">
<g>
	<path fill="#444444" d="M12.731,10.152L9.859,7.282c0.434-0.71,0.686-1.545,0.686-2.438C10.545,2.249,8.295,0,5.699,0
		C3.103,0,1,2.104,1,4.699c0,2.594,2.25,4.843,4.84,4.843c0.867,0,1.676-0.233,2.367-0.639l2.889,2.886
		c0.281,0.282,0.738,0.282,1.02,0l0.715-0.716C13.118,10.791,13.012,10.435,12.731,10.152z M2.447,4.699
		c0-1.797,1.453-3.253,3.252-3.253c1.799,0,3.398,1.601,3.398,3.398c0,1.796-1.459,3.252-3.258,3.252
		C4.047,8.096,2.447,6.496,2.447,4.699z"/>
</g>
</svg>
