<svg xmlns="http://www.w3.org/2000/svg" xmlns:svgjs="http://svgjs.dev/svgjs" xmlns:xlink="http://www.w3.org/1999/xlink" width="142.55" height="136.26" version="1.1"><svg xmlns="http://www.w3.org/2000/svg" width="142.55" height="136.26" class="nebula-rocket-logo" version="1.1" viewBox="0 0 142.55 136.26"><path d="M28.17,91.04c-2.8-.61-14.55,1.32-18.18,10.04-1.12,2.53-1.99,5.59-1.54,8.06.57.99,2.49-1.01,3.27-1.54,1.14-.92,2.08-1.7,2.45-1.91.39-.23.26.09.17.35-1.09,2.96-6.37,15.37-10.64,20.92-.3.5-.26.67,0,.79,1.38.54,6.15,2.02,13.12-.21,4.41-1.4,7.87-3.4,11.61-6.31.89-.63,1.79-1.59,2.58-1.75.32.02.14.82-.32,1.93-.69,1.64-2.06,3.53-3.35,4.84-.47.6-2.27,1.96-1.47,2.17,1.87.31,8.91.96,14.13-5.06,2.8-3.14,4.3-6.96,5.14-10.86.36-1.51.6-3.14-.67-4.25-3.3-3.42-11.81-12.75-16.26-17.2l-.02-.02h-.01s0,0,0,0Z" class="flame" opacity=".6"/><path d="M53.47,39.11c-15.25-6.42-45.05,12.18-48.61,29.74-2.66,9.3,17.77-2.17,29.59,7.73l.16.17c-.99,1.97-3.65,7.27-3.65,7.27l21.12,22.48,7.49-3.19.15.17c9.17,12.48-3.58,32.02,5.88,30.02,7.07-.72,19.36-10.44,26.91-19.37,7.56-8.93,5.78-27.31,5.78-27.31C148.5,49.89,139.43,5.45,139.03,3.61c-1.79-.51-45.61-12.31-85.56,35.5ZM105.82,50.87c-7.26,1.71-14.52-2.79-16.23-10.05-1.71-7.26,2.79-14.52,10.05-16.23,7.26-1.71,14.52,2.79,16.23,10.05,1.71,7.26-2.79,14.52-10.05,16.23Z" class="ship"/></svg><style>@media (prefers-color-scheme:light){:root{filter:none}}@media (prefers-color-scheme:dark){:root{filter:none}}</style></svg>