<svg height="270pt" preserveAspectRatio="xMidYMid meet" viewBox="0 0 270 270" width="270pt" xmlns="http://www.w3.org/2000/svg"><path d="m0 1350v-1350h1350 1350v1350 1350h-1350-1350zm2390 691c0-5-34-97-76-203-41-106-89-228-105-270l-30-77-315-3c-173-2-314 1-314 5s48 131 107 282l107 275h313c186 0 313-4 313-9zm-1250-818c0-4-48-130-107-280l-106-273h-314c-172 0-313 3-313 7 0 3 48 129 107 280l106 273h314c172 0 313-3 313-7zm915-30c-8-21-57-146-109-278l-94-240-317-3c-252-2-316 0-312 10 3 7 45 117 95 243 49 127 97 247 105 268l16 37h315 316z" transform="matrix(.1 0 0 -.1 0 270)"/></svg>