<svg enable-background="new 0 0 360 360" viewBox="0 0 360 360" xmlns="http://www.w3.org/2000/svg"><path d="m0 180v180h360v-360h-360z"/><path d="m288.6 57.9c-.1-.4-.5-.7-1-.7-.4.1-.7.5-.7 1s.5.7 1 .7c.5-.1.8-.6.7-1zm-22.4 28.7c5.8-3.5 11.1-6.2 15.7-8.4-2.2 4.6-5 9.9-8.4 15.7-2.4 4-5 8.2-7.8 12.5-3.7-4.3-7.7-8.3-11.9-11.9 4.2-2.9 8.4-5.6 12.4-7.9zm-189.5 139.1c-30 42.4-43.3 76.8-31.3 88.9 19.1 19.1 94.9-25.7 169.2-100s119.1-150.1 100-169.2c-12.1-12-46.5 1.2-88.9 31.3-14-6.2-29.4-9.6-45.7-9.6-62.4 0-112.9 50.5-112.9 112.9 0 16.3 3.4 31.7 9.6 45.7zm17.7 28c3.7 4.3 7.7 8.3 11.9 11.9-4.3 2.8-8.5 5.5-12.5 7.8-5.8 3.5-11.1 6.2-15.7 8.4 2.2-4.6 5-9.9 8.4-15.7 2.4-4 5-8.1 7.9-12.4zm-36.5 34.9c.4.1.9-.2 1-.7.1-.4-.2-.9-.7-1s-.9.2-1 .7.2.9.7 1zm13.5 12.9c-.4.4-.3 1 .1 1.4s1 .3 1.4-.1c.1-.1.1-.2.2-.3.4-.4.3-1-.1-1.4s-1-.3-1.4.1c-.1.1-.2.2-.2.3zm230.1-230.1c-.5.2-.7.8-.5 1.3s.8.7 1.3.5c.1 0 .2-.1.3-.2.5-.2.7-.8.5-1.3s-.8-.7-1.3-.5c-.2.1-.3.1-.3.2zm-121.5 221.5c62.4 0 112.9-50.5 112.9-112.9 0-8.7-1-17.3-2.9-25.5-17.3 23.1-38.8 47.9-63.2 72.3s-49.2 45.9-72.3 63.2c8.2 1.9 16.7 2.9 25.5 2.9z" fill="#fff"/></svg>