<svg height="360" viewBox="0 0 270 270" width="360" xmlns="http://www.w3.org/2000/svg"><path d="M0 135v135h270V0H0zm239-69.1c0 .5-3.4 9.7-7.6 20.3-4.1 10.6-8.9 22.8-10.5 27l-3 7.7-31.5.3c-17.3.2-31.4-.1-31.4-.5s4.8-13.1 10.7-28.2L176.4 65h31.3c18.6 0 31.3.4 31.3.9zm-125 81.8c0 .4-4.8 13-10.7 28L92.7 203H61.3c-17.2 0-31.3-.3-31.3-.7 0-.3 4.8-12.9 10.7-28L51.3 147h31.4c17.2 0 31.3.3 31.3.7zm91.5 3c-.8 2.1-5.7 14.6-10.9 27.8l-9.4 24-31.7.3c-25.2.2-31.6 0-31.2-1 .3-.7 4.5-11.7 9.5-24.3 4.9-12.7 9.7-24.7 10.5-26.8l1.6-3.7H207z"/></svg>