<svg viewBox="0 0 320 80" xmlns="http://www.w3.org/2000/svg"><path clip-rule="evenodd" d="M9.583 48.118l2.401-6.391h6.921l-2.401 6.391zm10.144 0l2.4-6.391h6.921l-2.401 6.391zm3.581-9.324l2.401-6.391h6.92l-2.4 6.391z" fill="#0099d8" fill-rule="evenodd"/><path d="M37.171 28.248h7.48c5.438 0 6.817 3.059 6.814 5.557-.002 2.498-1.387 5.557-6.824 5.557h-4.596l-.008 8.757h-2.884zm2.876 8.756h3.785c2.283 0 4.567-.505 4.569-3.199.003-2.694-2.28-3.199-4.563-3.199h-3.785zm15.359-8.813c1.082 0 1.982.842 1.981 1.853 0 1.01-.902 1.853-1.984 1.853s-1.982-.842-1.981-1.853.902-1.853 1.984-1.853zm-1.358 6.624h2.704l-.012 13.303h-2.704zm6.549 0H63.3l-.001 2.048h.06c.692-1.403 2.496-2.385 4.688-2.385 2.764 0 5.166 1.543 5.163 5.08l-.008 8.56h-2.704l.007-7.858c.003-2.498-1.528-3.424-3.241-3.424-2.253 0-3.967 1.347-3.969 4.434l-.006 6.849h-2.704zm26.433 3.537c-.99-.983-2.041-1.488-3.543-1.488-2.944 0-4.448 2.217-4.45 4.714-.002 2.499 1.798 4.519 4.592 4.519 1.502 0 2.554-.505 3.456-1.487l1.921 1.797c-1.413 1.46-3.336 2.049-5.409 2.049-4.386 0-7.448-2.835-7.444-6.933.003-4.098 3.01-7.016 7.457-7.016 2.073 0 4.055.674 5.466 2.105zm3.856-11.451h2.704l-.012 13.695 6.134-5.752h3.755l-6.645 6.034 7.204 7.241h-3.846l-6.603-6.904-.006 6.904h-2.704zm15.135 7.914h2.703l-.001 2.048h.06c.692-1.403 2.496-2.385 4.688-2.385 2.764 0 5.166 1.543 5.163 5.08l-.008 8.56h-2.704l.007-7.858c.002-2.498-1.529-3.424-3.242-3.424-2.253 0-3.967 1.347-3.969 4.434l-.006 6.849h-2.704zm18.288 7.578c-.002 2.329 2.31 3.873 4.803 3.873 1.652 0 2.854-.786 3.907-1.992l2.042 1.458c-1.504 1.825-3.578 2.724-6.311 2.724-4.506 0-7.328-3.032-7.324-6.988.003-3.985 3.101-6.988 7.367-6.988 5.017 0 6.937 3.592 6.933 7.016v.898h-11.417zm8.534-2.022c-.058-2.216-1.378-3.872-4.112-3.872-2.674 0-4.418 2.104-4.42 3.872zm3.97-5.556h3.125l4.227 10.384h.06l4.035-10.384h2.914L144.4 50.98c-.963 2.301-1.896 3.873-4.87 3.873-.811 0-1.652-.085-2.403-.365l.332-2.301a4.628 4.628 0 0 0 1.622.309c1.713 0 2.224-.87 2.766-2.189l.874-2.104z" fill="#0093d0"/><path d="M153.793 28.248h2.884l-.007 8.251h11.025l.008-8.251h2.884l-.019 19.87h-2.884l.009-9.093h-11.026l-.008 9.093h-2.884zm33.72 19.87h-2.704l.002-2.049h-.061c-.692 1.402-2.496 2.386-4.688 2.386-2.764 0-5.165-1.544-5.162-5.081l.007-8.559h2.705l-.008 7.858c-.002 2.497 1.529 3.423 3.242 3.423 2.253 0 3.967-1.347 3.968-4.434l.008-6.848h2.703zm17.905-.112c-.004 4.014-3.131 6.848-7.787 6.848-2.704 0-4.957-.646-6.968-2.386l1.835-2.133c1.411 1.403 3.002 2.161 5.074 2.161 4.025 0 5.14-2.357 5.142-4.603l.002-1.965h-.091c-1.022 1.6-2.977 2.357-4.928 2.357-4.177 0-7.268-2.946-7.234-6.819.004-3.929 2.83-6.988 7.246-6.988 1.922 0 3.905.813 4.954 2.245h.062l.002-1.908h2.702zm-12.07-6.539c-.004 2.694 1.797 4.462 4.682 4.462 2.884 0 4.688-1.768 4.69-4.462.002-2.695-1.798-4.631-4.682-4.631-2.885 0-4.689 1.936-4.69 4.631zm22.596-6.988c4.235 0 7.567 3.115 7.564 6.988-.004 3.873-3.341 6.988-7.577 6.988s-7.568-3.115-7.564-6.988c.003-3.874 3.342-6.988 7.577-6.988zm-.009 11.618c2.884 0 4.688-1.936 4.69-4.63.002-2.695-1.799-4.631-4.683-4.631s-4.688 1.936-4.691 4.631c-.002 2.694 1.8 4.63 4.684 4.63z" fill="#a0cf67"/><path d="M245.263 37.004l-.009 9.795c-2.073 1.179-5.469 1.824-8.053 1.824-7.21 0-11.381-4.799-11.377-10.44.005-5.894 4.606-10.44 11.096-10.44 3.904 0 6.278.982 7.929 2.582l-2.045 2.048c-1.741-1.571-3.754-2.104-5.887-2.104-4.866 0-8.024 3.564-8.027 7.914-.005 4.491 3.567 7.914 8.254 7.914 2.013 0 3.936-.365 5.228-1.038l.006-5.528h-4.717l.002-2.526h7.6zm4.118-2.189h2.704l-.002 2.048h.06c.692-1.403 2.496-2.385 4.269-2.385.42 0 .841.056 1.201.168l-.122 2.722c-.451-.112-.901-.196-1.321-.196-2.645 0-4.087 1.347-4.091 4.267l-.005 6.679h-2.705zm17.544-.336c4.236 0 7.568 3.115 7.565 6.988-.004 3.873-3.342 6.988-7.577 6.988-4.236 0-7.567-3.115-7.563-6.988.003-3.874 3.339-6.988 7.575-6.988zm-.01 11.618c2.884 0 4.688-1.936 4.69-4.63.003-2.695-1.798-4.631-4.682-4.631-2.885 0-4.689 1.936-4.69 4.631-.003 2.694 1.798 4.63 4.682 4.63zm23.131 2.021h-2.704l.001-2.049h-.059c-.692 1.402-2.496 2.386-4.688 2.386-2.764 0-5.167-1.544-5.163-5.081l.007-8.559h2.704l-.007 7.858c-.003 2.497 1.529 3.423 3.241 3.423 2.253 0 3.967-1.347 3.97-4.434l.006-6.848h2.704zm3.646-13.303h2.704l-.002 1.908h.061c1.053-1.432 3.036-2.245 4.959-2.245 4.416 0 7.237 3.059 7.233 6.988-.004 3.985-2.86 6.988-7.246 6.988-2.043 0-3.995-.87-4.955-2.246h-.061l-.009 9.823h-2.703zm2.699 6.652c-.003 2.694 1.798 4.63 4.682 4.63 2.885 0 4.688-1.936 4.69-4.63.004-2.695-1.798-4.631-4.682-4.631s-4.688 1.936-4.69 4.631z" fill="#9fa1a4"/></svg>